<svg width="64" height="18" viewBox="0 0 64 18" fill="none" xmlns="http://www.w3.org/2000/svg">
<g clip-path="url(#clip0_199_475)">
<path d="M60.5799 8.22764L64 17.28C62.9975 17.1425 61.9754 16.9462 60.9533 16.7891L59.027 11.7818L57.0418 16.3767C56.0786 16.2196 55.1155 16.1607 54.1327 16.0429L57.6118 8.12946L54.4668 0H57.3956L59.1646 4.536L61.0516 0H64L60.5799 8.22764ZM52.1671 0H49.5135V15.6895C50.3784 15.7484 51.2826 15.7876 52.1671 15.8858V0ZM47.2334 15.5127C44.8157 15.3556 42.398 15.1985 39.941 15.1593V0H42.6339V12.6065C44.1867 12.6458 45.7396 12.7636 47.2334 12.8422V15.5127ZM37.0516 6.14618V8.83636H33.3563V14.9825H30.683V0H38.2506V2.69018H33.3563V6.12655H37.0516V6.14618ZM26.1425 2.69018V15.12C25.2383 15.12 24.3145 15.12 23.43 15.1593V2.69018H20.6388V0H28.9533V2.69018H26.1425ZM17.7297 8.97382C16.5504 8.97382 15.1351 8.97382 14.1327 9.03273V13.0385C15.7248 12.9207 17.2973 12.8029 18.9091 12.744V15.336L11.4398 15.9251V0H18.9091V2.69018H14.1327V6.32291C15.1744 6.32291 16.7862 6.264 17.7297 6.264V8.97382ZM2.75184 7.46182V16.8873C1.7887 17.0051 0.923833 17.1425 0 17.28V0H2.57494L6.09337 9.81818V0H8.8059V16.1607C7.84275 16.3178 6.87961 16.3767 5.85749 16.5142L2.75184 7.46182Z" fill="#E50914"/>
</g>
<defs>
<clipPath id="clip0_199_475">
<rect width="64" height="17.28" fill="white"/>
</clipPath>
</defs>
</svg>
